name ./resultDataOpenSim/trcMotMarkerGrf/sub10/grf-05-04.mot
datacolumns 19
datarows 17
range 0.51600000 0.58000000
endheader

                time	     ground_force_vx	     ground_force_vy	     ground_force_vz	     ground_force_px	     ground_force_py	     ground_force_pz	   l_ground_force_vx	   l_ground_force_vy	   l_ground_force_vz	   l_ground_force_px	   l_ground_force_py	   l_ground_force_pz	     ground_torque_x	     ground_torque_y	     ground_torque_z	   l_ground_torque_x	   l_ground_torque_y	   l_ground_torque_z	
          0.51600000	         35.97675934	        430.77653298	        -22.14846307	         -0.79100489	          0.00000000	          0.03299716	          0.00000000	          0.00000000	          0.00000000	          0.00000000	          0.00000000	          0.00000000	          0.00000000	          3.70981854	          0.00000000	          0.00000000	          0.00000000	          0.00000000	
          0.52000000	         39.58434784	        432.84109293	        -23.24903634	         -0.79074668	          0.00000000	          0.03321442	          0.00000000	          0.00000000	          0.00000000	          0.00000000	          0.00000000	          0.00000000	          0.00000000	          3.77099451	          0.00000000	          0.00000000	          0.00000000	          0.00000000	
          0.52400000	         43.40400198	        435.39006885	        -24.12404772	         -0.79039989	          0.00000000	          0.03342547	          0.00000000	          0.00000000	          0.00000000	          0.00000000	          0.00000000	          0.00000000	          0.00000000	          3.84658803	          0.00000000	          0.00000000	          0.00000000	          0.00000000	
          0.52800000	         47.11531709	        438.44209203	        -24.75277823	         -0.78986228	          0.00000000	          0.03361309	          0.00000000	          0.00000000	          0.00000000	          0.00000000	          0.00000000	          0.00000000	          0.00000000	          3.94083126	          0.00000000	          0.00000000	          0.00000000	          0.00000000	
          0.53200000	         50.42995108	        442.01138090	        -25.17462228	         -0.78905367	          0.00000000	          0.03376936	          0.00000000	          0.00000000	          0.00000000	          0.00000000	          0.00000000	          0.00000000	          0.00000000	          4.05374630	          0.00000000	          0.00000000	          0.00000000	          0.00000000	
          0.53600000	         53.15981552	        446.10804316	        -25.47507522	         -0.78792787	          0.00000000	          0.03390159	          0.00000000	          0.00000000	          0.00000000	          0.00000000	          0.00000000	          0.00000000	          0.00000000	          4.18126367	          0.00000000	          0.00000000	          0.00000000	          0.00000000	
          0.54000000	         55.25284867	        450.73379211	        -25.76356420	         -0.78647840	          0.00000000	          0.03402374	          0.00000000	          0.00000000	          0.00000000	          0.00000000	          0.00000000	          0.00000000	          0.00000000	          4.31636826	          0.00000000	          0.00000000	          0.00000000	          0.00000000	
          0.54400000	         56.78981894	        455.88036191	        -26.14946314	         -0.78474210	          0.00000000	          0.03414345	          0.00000000	          0.00000000	          0.00000000	          0.00000000	          0.00000000	          0.00000000	          0.00000000	          4.45104496	          0.00000000	          0.00000000	          0.00000000	          0.00000000	
          0.54800000	         57.94753478	        461.53036950	        -26.71993724	         -0.78277762	          0.00000000	          0.03426125	          0.00000000	          0.00000000	          0.00000000	          0.00000000	          0.00000000	          0.00000000	          0.00000000	          4.57850561	          0.00000000	          0.00000000	          0.00000000	          0.00000000	
          0.55200000	         58.94185833	        467.65638282	        -27.52200131	         -0.78064007	          0.00000000	          0.03438001	          0.00000000	          0.00000000	          0.00000000	          0.00000000	          0.00000000	          0.00000000	          0.00000000	          4.69507048	          0.00000000	          0.00000000	          0.00000000	          0.00000000	
          0.55600000	         59.96649634	        474.21984915	        -28.55183222	         -0.77837419	          0.00000000	          0.03450637	          0.00000000	          0.00000000	          0.00000000	          0.00000000	          0.00000000	          0.00000000	          0.00000000	          4.80119819	          0.00000000	          0.00000000	          0.00000000	          0.00000000	
          0.56000000	         61.14280897	        481.17511240	        -29.75441857	         -0.77601387	          0.00000000	          0.03464292	          0.00000000	          0.00000000	          0.00000000	          0.00000000	          0.00000000	          0.00000000	          0.00000000	          4.90143365	          0.00000000	          0.00000000	          0.00000000	          0.00000000	
          0.56400000	         62.49338964	        488.47640061	        -31.03614062	         -0.77357774	          0.00000000	          0.03478649	          0.00000000	          0.00000000	          0.00000000	          0.00000000	          0.00000000	          0.00000000	          0.00000000	          5.00333706	          0.00000000	          0.00000000	          0.00000000	          0.00000000	
          0.56800000	         63.94664660	        496.07756342	        -32.28952760	         -0.77107231	          0.00000000	          0.03493232	          0.00000000	          0.00000000	          0.00000000	          0.00000000	          0.00000000	          0.00000000	          0.00000000	          5.11565349	          0.00000000	          0.00000000	          0.00000000	          0.00000000	
          0.57200000	         65.37041021	        503.92339116	        -33.42192987	         -0.76850080	          0.00000000	          0.03507470	          0.00000000	          0.00000000	          0.00000000	          0.00000000	          0.00000000	          0.00000000	          0.00000000	          5.24606744	          0.00000000	          0.00000000	          0.00000000	          0.00000000	
          0.57600000	         66.62451181	        511.94921047	        -34.37766649	         -0.76586036	          0.00000000	          0.03520553	          0.00000000	          0.00000000	          0.00000000	          0.00000000	          0.00000000	          0.00000000	          0.00000000	          5.39892530	          0.00000000	          0.00000000	          0.00000000	          0.00000000	
          0.58000000	         67.61742938	        520.10279319	        -35.14909619	         -0.76314456	          0.00000000	          0.03531430	          0.00000000	          0.00000000	          0.00000000	          0.00000000	          0.00000000	          0.00000000	          0.00000000	          5.57335755	          0.00000000	          0.00000000	          0.00000000	          0.00000000	
